<?xml version="1.0" standalone="no"?>
<!DOCTYPE svg PUBLIC "-//W3C//DTD SVG 20010904//EN"
 "http://www.w3.org/TR/2001/REC-SVG-20010904/DTD/svg10.dtd">
<svg version="1.0" xmlns="http://www.w3.org/2000/svg"
 width="2000.000000pt" height="2000.000000pt" viewBox="0 0 2000.000000 2000.000000"
 preserveAspectRatio="xMidYMid meet">

<g transform="translate(0.000000,2000.000000) scale(0.100000,-0.100000)"
fill="#000000" stroke="none">
<path d="M10057 14830 c-61 -8 -81 -18 -69 -36 5 -8 30 -8 84 -1 73 10 80 9
125 -14 131 -68 199 -308 223 -794 16 -316 -4 -839 -75 -2025 -19 -316 -44
-743 -55 -949 -11 -206 -21 -375 -22 -376 -2 -2 -66 -41 -143 -88 -118 -72
-141 -83 -146 -69 -12 32 -32 427 -38 747 -6 310 -5 322 16 385 24 72 136 331
237 545 64 135 80 191 54 183 -15 -4 -94 -124 -220 -330 l-88 -143 0 90 c0
160 19 490 55 955 49 640 61 967 47 1244 -20 370 -59 542 -142 624 -38 38 -99
61 -111 41 -6 -10 6 -20 44 -39 41 -20 58 -35 79 -75 64 -118 88 -299 95 -706
6 -343 -1 -493 -47 -1089 -29 -369 -43 -610 -56 -944 l-6 -169 -79 -116 c-134
-197 -119 -221 -119 188 0 309 29 1694 44 2084 5 132 5 137 -14 137 -18 0 -20
-7 -20 -67 0 -38 -9 -412 -20 -833 -10 -421 -22 -979 -26 -1240 -7 -520 -4
-494 -67 -527 -25 -13 -31 -13 -52 1 -13 8 -35 39 -49 68 -55 112 -55 126 -62
1128 -8 1185 7 1584 72 1839 26 102 41 132 80 157 24 16 27 16 52 -3 25 -19
66 -67 104 -123 12 -19 19 -22 28 -13 9 8 3 25 -28 71 -74 108 -129 136 -186
91 -77 -61 -118 -251 -147 -684 -7 -101 -13 -496 -14 -975 -2 -719 -4 -815
-20 -900 -23 -125 -16 -442 16 -730 31 -277 34 -713 6 -804 -10 -32 -25 -69
-33 -81 -44 -67 -124 -13 -200 133 l-27 52 17 243 c43 637 42 938 -4 1667 -39
600 -42 700 -37 1110 5 398 15 554 42 697 25 132 51 164 148 178 64 10 65 35
2 35 -142 0 -186 -99 -217 -485 -16 -195 -16 -917 1 -1145 52 -747 65 -1053
58 -1435 -5 -260 -28 -706 -40 -775 -6 -37 -109 290 -162 515 -39 168 -37 137
-70 875 -31 684 -33 739 -45 1135 -15 488 -36 718 -81 885 -47 173 -99 185
-181 43 -16 -29 -33 -55 -37 -57 -4 -3 -8 14 -10 37 -3 76 -39 226 -63 269
-42 76 -99 76 -179 1 -62 -58 -52 -83 13 -31 63 51 84 61 108 48 27 -15 45
-52 63 -135 43 -193 46 -405 33 -1929 -8 -869 -11 -1033 -22 -1005 -7 19 -38
101 -68 183 -31 82 -65 159 -76 171 -19 20 -21 41 -30 296 -16 440 -39 999
-45 1064 -3 33 -9 287 -15 565 -6 278 -15 551 -20 606 -17 171 -60 302 -119
365 -31 32 -45 39 -75 39 -47 0 -94 -22 -132 -61 -47 -49 -17 -55 45 -9 29 22
63 40 76 40 48 0 93 -57 129 -163 38 -113 47 -214 56 -667 9 -397 29 -934 61
-1625 6 -126 13 -603 16 -1060 l5 -830 -133 139 c-73 76 -155 165 -181 198
l-48 61 0 136 c0 256 32 1066 70 1746 36 664 43 861 37 1157 -7 354 -27 491
-92 618 -25 50 -96 120 -121 120 -45 0 -133 -92 -120 -126 9 -23 19 -16 51 34
50 78 103 64 156 -40 106 -209 120 -555 64 -1583 -36 -652 -55 -1076 -65
-1430 -6 -209 -13 -422 -16 -473 l-6 -94 -41 56 c-23 32 -49 56 -59 56 -10 0
-18 -4 -18 -8 0 -5 27 -47 60 -93 l60 -84 0 -237 c0 -131 -3 -238 -6 -238 -4
0 -51 27 -104 60 l-97 60 -7 1357 c-7 1330 -5 1458 24 1873 6 74 10 171 10
215 0 103 -25 265 -48 318 -40 90 -79 99 -147 36 -36 -33 -43 -45 -34 -55 10
-12 20 -7 55 26 36 33 48 39 63 30 62 -33 89 -320 61 -650 -22 -267 -27 -720
-20 -1895 4 -671 6 -1221 5 -1223 -1 -1 -40 25 -86 58 -46 33 -90 60 -96 60
-10 0 -13 129 -13 618 0 609 -6 852 -35 1577 -8 204 -19 501 -25 660 -8 235
-13 305 -30 369 -33 130 -89 207 -140 191 -24 -8 -80 -89 -80 -117 0 -33 25
-18 52 32 30 53 46 61 70 33 58 -67 77 -153 89 -408 54 -1208 72 -1958 67
-2835 -3 -404 -1 -1045 4 -1423 l10 -688 -37 -36 c-46 -45 -69 -97 -85 -189
-13 -79 -5 -125 30 -181 18 -31 39 -41 52 -27 3 3 -5 24 -18 47 -29 50 -32
145 -9 224 15 51 48 103 66 103 5 0 9 -49 9 -109 0 -88 -3 -110 -15 -115 -19
-7 -20 -26 -1 -26 9 0 15 -20 20 -61 11 -109 8 -129 -23 -164 -23 -27 -121
-205 -121 -221 0 -2 8 -4 18 -4 26 0 42 22 88 115 l39 80 3 -67 c3 -61 5 -68
24 -68 19 0 20 4 16 80 -5 88 -3 92 61 125 39 20 76 13 92 -16 6 -11 16 -48
23 -82 9 -43 18 -63 29 -65 25 -5 31 23 18 84 -18 77 -60 124 -112 124 -22 0
-58 -9 -80 -20 l-40 -21 3 93 c3 81 5 93 22 96 30 6 42 -14 22 -37 -11 -12
-14 -21 -7 -26 20 -12 51 6 57 32 9 35 -28 67 -69 60 -27 -4 -28 -2 -28 42 0
25 -3 83 -5 127 -6 93 -5 94 89 94 93 0 107 -26 114 -211 5 -103 3 -131 -11
-157 -20 -39 -20 -42 3 -42 29 0 43 25 57 98 l12 67 1 -57 c1 -51 3 -58 21
-58 17 0 19 5 15 43 -7 53 -41 623 -60 997 -15 284 -39 1080 -33 1085 2 1 48
-34 104 -78 l101 -81 7 -255 c13 -498 39 -862 82 -1159 l25 -173 -21 -17 c-18
-14 -24 -35 -32 -107 -13 -122 -4 -184 35 -242 38 -56 102 -97 117 -73 6 10 1
19 -20 31 -67 41 -107 136 -95 228 3 25 8 65 11 89 7 59 25 42 22 -21 -2 -34
1 -51 8 -50 6 1 21 -42 34 -102 15 -67 28 -105 36 -105 22 0 22 12 1 99 -15
65 -17 89 -8 103 6 10 11 27 11 39 0 16 -5 20 -19 16 -16 -4 -20 2 -26 32 -3
20 -8 44 -11 54 -4 13 5 22 38 37 73 33 167 24 198 -19 26 -37 50 -312 30
-344 -10 -17 -10 -22 4 -32 9 -7 16 -24 16 -39 0 -25 -2 -26 -56 -26 -81 0
-118 -21 -149 -85 -15 -29 -30 -80 -35 -112 -4 -33 -20 -89 -34 -124 -26 -66
-22 -99 10 -68 18 18 74 181 74 216 0 40 40 113 72 129 32 17 116 10 124 -10
2 -6 7 -42 11 -81 6 -52 12 -70 23 -70 12 0 14 12 12 63 -2 34 -1 62 3 62 3 0
15 -20 26 -45 30 -67 46 -254 31 -353 -20 -133 -37 -173 -89 -212 l-45 -34
-427 -4 c-490 -4 -481 -6 -528 75 -15 27 -42 69 -60 94 -63 88 -76 132 -81
264 -2 66 5 280 17 475 64 1087 86 3312 41 4095 -43 747 -113 1050 -250 1080
-46 10 -132 -13 -127 -34 2 -9 10 -14 18 -12 53 14 111 12 135 -4 74 -48 133
-302 168 -735 36 -429 41 -646 40 -1650 0 -1236 -19 -2074 -60 -2740 -8 -140
-16 -323 -17 -405 l-2 -150 -36 45 c-19 25 -49 65 -66 90 -48 70 -76 92 -126
97 l-44 5 -6 77 c-4 42 -10 149 -13 239 l-7 162 31 0 c17 0 49 -7 71 -16 70
-28 76 -87 30 -291 -13 -56 -20 -106 -15 -110 32 -32 86 134 89 274 2 69 -1
86 -19 110 -29 39 -80 62 -141 63 l-53 0 0 38 c0 20 -7 161 -15 312 -40 763
-70 1541 -86 2205 -20 846 10 1410 84 1593 38 96 66 96 129 -3 32 -50 44 -62
54 -54 27 22 -68 153 -118 165 -81 18 -135 -147 -170 -516 -17 -176 -17 -1301
0 -1755 27 -708 73 -1736 87 -1917 l6 -76 -33 -11 c-44 -14 -104 -65 -124
-103 -23 -45 -43 -184 -35 -240 5 -27 16 -57 27 -69 25 -28 92 -62 110 -55 22
9 16 26 -13 37 -50 19 -71 48 -78 104 -8 58 16 184 41 223 16 24 91 78 99 70
6 -6 25 -308 25 -396 0 -56 -2 -63 -23 -71 -31 -12 -68 -56 -89 -106 -61 -146
-101 -256 -128 -360 -18 -66 -35 -124 -39 -128 -7 -7 -44 18 -185 128 -67 52
-99 56 -104 13 -3 -24 6 -34 67 -79 39 -28 71 -53 71 -56 0 -2 -4 -2 -9 1 -5
3 -22 -1 -37 -9 -20 -10 -59 -15 -121 -15 l-92 0 21 36 c20 34 21 41 9 93 -7
31 -19 99 -27 151 -22 147 -39 193 -81 230 -54 48 -98 63 -165 57 -39 -3 -58
-1 -61 7 -3 7 -6 73 -6 147 l-2 136 42 28 c23 15 59 30 80 32 34 5 43 1 73
-29 64 -64 89 -213 47 -281 l-23 -37 25 0 c14 0 32 10 41 23 15 19 16 20 10 2
-16 -49 -16 -55 -1 -55 13 0 17 -15 19 -82 2 -66 6 -83 18 -83 12 0 15 20 16
115 0 100 4 125 28 189 29 78 50 184 61 311 7 69 11 78 46 117 24 26 39 52 39
68 0 34 -42 75 -75 75 -25 0 -26 2 -24 46 2 35 -1 48 -14 55 -14 8 -19 5 -27
-17 -18 -47 -16 -155 3 -191 25 -47 22 -159 -9 -310 -14 -70 -27 -129 -29
-131 -5 -5 -14 199 -25 553 -6 182 -19 587 -30 900 -36 1029 -40 1194 -46
1760 -12 1075 27 1691 128 1998 46 142 131 273 198 307 69 35 104 26 182 -49
30 -27 41 -32 50 -23 24 24 -116 132 -172 132 -40 0 -119 -53 -162 -108 -137
-174 -196 -412 -239 -957 -17 -214 -23 -1452 -10 -1932 10 -343 35 -1130 76
-2313 5 -156 5 -163 -10 -130 -9 19 -28 48 -43 63 -59 63 -118 72 -197 32 -27
-13 -51 -22 -55 -19 -11 11 -5 2146 8 2564 34 1167 43 1426 52 1670 24 617 52
896 107 1065 62 193 183 273 294 194 33 -23 35 -23 43 -4 10 26 -65 67 -121
67 -130 -1 -213 -98 -267 -314 -56 -217 -78 -547 -111 -1603 -48 -1524 -64
-2669 -46 -3285 l10 -385 -29 -23 c-28 -22 -30 -28 -30 -91 0 -84 24 -171 50
-178 29 -8 34 -45 7 -66 -87 -69 -126 -139 -162 -294 -29 -122 -27 -201 6
-234 19 -19 18 -19 -4 -19 -142 -3 -529 -30 -545 -39 -26 -14 -19 -39 13 -47
12 -3 276 -1 586 5 310 6 978 13 1484 16 l920 6 -40 -25 c-88 -54 -105 -76
-70 -90 26 -9 375 14 450 31 39 8 122 31 185 50 l115 35 845 -11 c488 -7 877
-16 920 -22 41 -6 100 -8 130 -4 68 8 192 7 1535 -5 1695 -16 2312 -28 2433
-46 151 -22 245 0 227 55 -27 86 -825 118 -3705 147 l-645 7 -86 86 c-97 98
-146 165 -223 313 -109 206 -166 432 -166 651 0 149 15 228 59 315 28 55 103
136 149 161 21 11 22 10 22 -44 0 -42 3 -55 15 -55 12 0 15 14 15 65 0 76 -12
67 168 129 l132 45 0 -59 c0 -53 2 -60 20 -60 18 0 20 7 20 65 l0 64 69 21
c37 11 71 20 75 20 3 0 6 -171 6 -380 l0 -380 -49 0 c-105 0 -197 -29 -247
-78 -24 -25 -67 -102 -60 -110 2 -1 26 13 54 32 56 37 136 56 240 56 l62 0 0
-30 c0 -23 4 -30 20 -30 13 0 20 7 20 20 0 27 11 25 42 -7 42 -46 48 -67 48
-175 0 -126 -15 -162 -81 -196 -39 -21 -54 -23 -139 -19 -102 4 -163 24 -228
73 -18 14 -36 24 -39 21 -3 -3 6 -31 20 -61 45 -97 153 -144 307 -133 85 5
142 26 182 64 l27 26 32 -27 c56 -48 96 -59 209 -60 131 -1 183 16 239 81 55
62 63 107 59 343 l-3 195 -47 -185 c-26 -102 -49 -200 -52 -218 -15 -87 -87
-128 -212 -120 -80 5 -109 19 -148 72 -18 23 -22 47 -27 159 -7 178 -34 229
-142 277 l-47 21 0 393 0 393 122 37 c67 21 127 40 133 42 8 3 15 -47 23 -169
11 -157 41 -441 58 -539 3 -23 11 -38 20 -38 18 0 18 19 0 156 -15 111 -40
373 -51 521 l-5 81 107 36 c60 20 114 36 121 36 11 0 12 -44 8 -232 -3 -128
-8 -443 -12 -700 -5 -408 -4 -468 9 -468 8 0 18 7 21 16 3 9 6 118 6 243 0
125 3 437 7 694 l6 466 154 51 c85 29 157 49 160 46 4 -3 -8 -383 -26 -843
-36 -964 -35 -913 -17 -913 15 0 25 96 27 260 1 86 2 90 9 40 11 -84 27 -123
68 -163 49 -48 101 -68 192 -74 151 -11 251 33 300 132 23 46 25 61 25 185 0
121 -2 140 -23 182 -13 27 -35 57 -48 67 l-24 19 6 181 c4 100 11 181 15 181
5 0 29 -21 55 -47 l46 -48 -7 50 c-9 66 -42 134 -72 148 l-25 11 7 141 c3 77
12 273 20 435 7 162 17 296 22 297 22 8 193 124 246 167 32 26 61 46 63 43 3
-2 0 -98 -6 -213 -16 -325 -48 -1227 -52 -1444 -3 -172 -1 -195 13 -198 14 -3
17 27 23 265 11 444 51 1469 62 1578 5 60 6 61 96 154 l91 95 -7 -150 c-10
-226 -26 -1022 -26 -1347 0 -269 1 -288 18 -285 16 3 17 46 24 678 3 371 11
782 17 913 l11 239 31 36 c41 47 119 132 122 132 1 0 -1 -87 -5 -192 -13 -316
-12 -1216 0 -1453 16 -293 20 -325 39 -325 14 0 15 15 9 123 -20 366 -26 557
-26 889 0 355 15 952 25 993 8 30 105 102 202 151 48 24 88 42 90 40 2 -2 -7
-210 -21 -462 -72 -1282 -80 -1835 -31 -2106 21 -112 76 -289 92 -295 26 -10
25 6 -6 96 -70 210 -86 391 -78 931 6 396 16 638 57 1360 11 195 20 383 20
418 0 72 0 72 109 96 72 17 76 19 67 42 -6 15 -17 16 -87 11 l-81 -7 6 118
c27 471 34 1183 16 1498 -22 379 -64 576 -147 697 -32 46 -69 67 -119 67 -32
0 -45 -8 -89 -52 -50 -52 -141 -209 -128 -222 14 -13 23 -4 59 62 56 101 92
148 129 168 31 17 34 17 71 -3 78 -40 139 -207 168 -465 25 -212 39 -635 32
-953 -9 -422 -28 -898 -36 -913 -3 -8 -36 -24 -72 -36 -37 -13 -100 -44 -142
-70 l-76 -46 0 38 c0 20 11 224 25 452 68 1133 54 1385 -89 1593 -67 98 -142
125 -274 96 -41 -8 -49 -13 -45 -29 4 -16 9 -17 41 -8 69 19 144 15 185 -11
72 -45 133 -167 164 -332 26 -137 24 -667 -5 -1134 -12 -192 -24 -397 -27
-455 -3 -58 -8 -135 -11 -173 l-6 -67 -71 -56 c-40 -30 -73 -50 -75 -45 -2 6
6 205 17 443 46 956 46 1237 1 1460 -22 107 -32 130 -51 111 -7 -7 -7 -22 0
-49 48 -178 61 -464 42 -924 -16 -407 -40 -911 -47 -1008 l-6 -82 -85 -75
c-48 -41 -88 -74 -90 -72 -2 2 15 303 38 668 35 543 42 726 43 1004 1 352 -3
401 -45 575 -24 97 -83 227 -129 282 -38 45 -119 86 -188 95 -43 5 -52 3 -52
-10 0 -9 12 -18 33 -22 127 -24 175 -58 230 -162 101 -193 136 -468 118 -928
-10 -260 -79 -1460 -87 -1512 -4 -26 -20 -44 -87 -96 -104 -81 -226 -162 -233
-155 -3 3 4 217 15 474 11 258 23 559 26 669 8 262 12 303 33 310 9 3 34 20
55 38 52 44 44 67 -24 67 l-49 0 6 373 c9 531 -12 821 -66 928 -37 72 -93 103
-213 117 -60 8 -67 7 -67 -9 0 -13 13 -18 58 -23 152 -18 195 -61 228 -228 13
-67 17 -179 21 -591 3 -280 2 -523 -1 -541 -6 -32 -8 -33 -109 -60 -56 -16
-109 -30 -119 -33 -15 -4 -17 41 -21 574 -3 378 -9 604 -16 653 -28 175 -67
250 -153 295 -50 26 -88 29 -88 8 0 -5 26 -20 59 -34 92 -41 127 -116 151
-319 15 -131 24 -698 15 -971 l-7 -225 -97 -32 c-53 -18 -99 -32 -103 -32 -3
0 -8 71 -12 158 -8 179 -27 429 -56 744 -11 119 -27 331 -34 471 -13 250 -14
256 -43 319 -35 75 -118 193 -136 193 -22 0 -10 -30 41 -100 84 -116 91 -145
103 -398 5 -121 20 -340 34 -486 24 -262 48 -576 60 -801 l7 -116 -149 -47
c-81 -26 -163 -50 -182 -54 l-34 -6 7 141 c7 140 7 142 51 234 47 100 105 263
105 296 0 28 -17 37 -37 20 -9 -7 -39 -47 -66 -88 l-49 -75 8 655 c12 936 12
1227 -3 1276 -18 58 -51 103 -104 141 -37 26 -49 30 -57 20 -8 -10 0 -21 36
-47 110 -82 118 -138 104 -725 -7 -242 -15 -655 -18 -917 l-7 -477 -56 -84
c-31 -46 -83 -118 -116 -160 l-60 -75 -3 40 c-2 22 4 308 13 636 33 1279 31
1717 -11 1921 -32 152 -91 238 -186 266 -65 19 -68 19 -68 -4 0 -15 10 -21 40
-26 118 -20 174 -130 200 -394 13 -133 13 -856 0 -1372 -6 -222 -15 -563 -20
-758 l-9 -354 -43 -44 c-53 -55 -197 -167 -205 -159 -3 3 0 304 8 668 17 856
17 1671 0 1888 -25 323 -68 488 -142 541 -34 24 -114 51 -123 42 -15 -15 -3
-31 27 -37 89 -17 134 -83 166 -242 33 -169 43 -323 48 -799 5 -416 -8 -1444
-23 -1915 l-6 -186 -90 -57 c-50 -32 -92 -56 -94 -54 -6 6 16 832 31 1162 14
302 44 759 65 979 9 103 8 116 -14 116 -15 0 -13 12 -50 -505 -36 -501 -66
-1221 -66 -1615 l0 -165 -121 -78 c-67 -43 -124 -76 -126 -73 -6 6 15 418 67
1286 93 1551 101 2042 39 2410 -60 357 -160 485 -362 460z m-1358 -635 c57
-153 81 -411 101 -1080 9 -293 38 -981 55 -1300 5 -88 4 -96 -7 -65 -7 19 -20
35 -28 35 -23 0 -31 -61 -25 -200 8 -177 20 -278 61 -496 28 -152 34 -209 34
-319 l0 -134 -31 30 c-70 66 -205 299 -296 509 l-35 80 4 1431 c2 1090 6 1430
15 1427 6 -3 17 6 24 19 39 74 80 127 93 122 9 -3 24 -30 35 -59z m-365 -2794
c22 -98 71 -239 121 -352 l43 -96 11 -334 c6 -184 14 -406 17 -494 l6 -160
-62 95 c-34 52 -83 120 -109 150 l-46 54 0 603 c0 332 1 603 2 603 1 0 8 -31
17 -69z m1592 -665 c8 -158 12 -292 7 -296 -16 -15 -124 -50 -153 -50 -74 0
-81 98 -31 401 38 233 71 389 113 538 l33 116 7 -210 c4 -115 15 -340 24 -499z
m1424 474 c0 -89 0 -90 -24 -90 -42 0 -42 36 -1 138 9 23 19 42 21 42 2 0 4
-40 4 -90z m906 -117 c-3 -87 -15 -385 -26 -663 -11 -278 -23 -533 -26 -567
l-5 -62 -77 -30 c-43 -16 -90 -33 -106 -37 l-29 -7 6 444 c4 244 10 562 14
705 l6 261 116 56 c64 30 120 56 125 56 5 1 6 -68 2 -156z m-281 -125 c-5
-143 -25 -1100 -25 -1207 l0 -48 -82 -17 c-123 -24 -130 -23 -124 17 6 37 25
607 34 1036 l7 294 90 38 c50 21 93 38 98 39 4 0 5 -69 2 -152z m-235 -190 c0
-244 -15 -797 -28 -1003 l-7 -110 -100 -22 c-55 -12 -129 -31 -165 -42 -35
-11 -64 -19 -65 -18 0 1 2 292 5 645 l5 644 170 73 c94 41 173 74 178 74 4 1
7 -108 7 -241z m-3038 -163 c58 -93 124 -206 147 -249 l42 -79 -5 -91 c-3 -50
-11 -212 -17 -361 -6 -148 -15 -290 -18 -315 l-7 -45 -65 88 c-37 49 -98 143
-137 210 l-70 122 -11 260 c-6 143 -14 364 -17 490 l-6 230 30 -45 c16 -25 77
-121 134 -215z m2645 -102 c-4 -186 -7 -474 -7 -641 0 -279 -1 -303 -17 -309
-10 -3 -66 -25 -125 -48 l-108 -42 0 299 0 299 75 77 c106 110 98 148 -18 78
l-57 -35 0 162 c0 89 3 212 7 274 l6 111 116 56 c64 31 120 56 125 56 6 0 7
-136 3 -337z m-288 -52 c-1 -138 -4 -260 -6 -273 -2 -13 -21 -35 -41 -48 -20
-14 -76 -63 -124 -109 l-88 -83 0 134 c0 74 3 216 7 315 l6 180 116 66 c64 36
120 66 124 66 5 1 7 -111 6 -248z m-2968 -89 c59 -103 89 -180 89 -227 0 -34
-1 -35 -39 -35 -37 0 -162 45 -208 76 -22 14 -23 21 -23 143 0 70 3 170 7 220
l6 93 59 -92 c33 -50 81 -131 109 -178z m2679 -146 l0 -324 -82 -102 -83 -101
-6 133 c-4 73 -7 239 -8 368 l-1 235 88 57 c48 31 88 57 90 58 1 0 2 -146 2
-324z m-3200 123 l70 -63 0 -191 c0 -308 26 -922 65 -1540 16 -244 17 -307 5
-213 -20 157 -40 178 -168 178 l-79 0 -7 108 c-3 59 -9 496 -13 972 l-6 864
31 -26 c17 -14 63 -55 102 -89z m2913 -782 c-75 -75 -184 -167 -199 -167 -4 0
-5 181 -2 402 l5 402 44 39 c24 22 85 68 134 103 l90 64 3 -382 2 -382 -77
-79z m-1499 486 c43 -128 56 -210 62 -368 6 -173 -5 -236 -47 -267 -24 -18
-29 -18 -60 -5 -19 7 -39 20 -45 28 -7 10 -7 78 2 234 7 121 15 292 19 380 l8
160 18 -42 c10 -23 29 -77 43 -120z m1261 -289 l-7 -396 -33 -14 c-122 -50
-230 -14 -278 95 -60 136 -12 341 120 515 57 74 191 211 200 203 3 -3 2 -185
-2 -403z m-2255 247 c110 -87 167 -141 220 -207 l57 -72 6 -568 c3 -313 9
-580 13 -593 6 -21 5 -23 -12 -16 -10 5 -56 11 -101 13 -61 3 -89 -1 -113 -13
-18 -9 -33 -15 -35 -13 -5 6 -34 199 -49 333 -46 401 -75 1197 -43 1179 6 -4
32 -24 57 -43z m3063 -287 l3 -270 -92 -43 c-51 -23 -109 -48 -129 -56 l-35
-15 0 165 0 166 75 117 c89 140 169 243 172 222 1 -8 4 -137 6 -286z m-2668
-216 c40 -84 94 -202 119 -261 46 -107 46 -108 46 -225 0 -208 36 -847 49
-884 4 -11 11 -14 19 -9 11 7 10 47 -3 227 -14 199 -35 675 -29 682 3 5 61
-149 96 -253 67 -205 108 -417 108 -570 0 -255 -96 -495 -271 -678 -49 -51
-57 -57 -47 -32 7 19 12 88 12 185 0 202 -14 258 -78 315 -51 45 -51 45 -46
245 1 55 -5 116 -19 175 -16 72 -22 154 -30 412 -12 345 -15 823 -5 823 3 0
38 -69 79 -152z m2381 -174 c-4 -12 -130 -64 -154 -64 -8 0 -12 18 -12 56 0
50 4 61 43 112 24 31 61 84 83 116 l39 59 3 -133 c1 -74 1 -139 -2 -146z
m1423 184 c0 -29 -8 -214 -17 -411 l-17 -358 -94 -2 -94 -2 7 74 c3 41 6 205
6 365 l0 292 98 46 c53 25 100 47 105 47 4 1 7 -23 6 -51z m-245 -425 c-7
-367 -7 -368 -30 -393 -72 -78 -73 -251 -3 -326 13 -14 19 -32 17 -50 -3 -25
-8 -29 -45 -36 -48 -8 -98 -31 -131 -62 -28 -24 -62 -87 -62 -112 0 -10 -2
-15 -5 -12 -7 7 43 1269 51 1277 8 8 186 79 201 80 10 1 12 -77 7 -366z
m-1374 202 c0 -43 -1 -45 -37 -54 -21 -6 -60 -17 -88 -26 -75 -23 -86 -18 -30
14 28 16 70 47 95 69 25 23 48 41 53 42 4 0 7 -20 7 -45z m1568 -653 c10 -7
11 -48 6 -191 -6 -161 -9 -181 -23 -175 -9 3 -46 11 -83 17 -53 8 -68 14 -68
28 0 15 6 15 46 7 57 -12 67 -3 32 27 -60 52 -78 91 -78 174 0 81 4 91 35 109
23 13 114 16 133 4z m-46 -469 l33 -19 0 -105 c0 -86 3 -104 15 -104 11 0 17
17 21 65 5 52 6 44 5 -42 -1 -91 -4 -111 -22 -134 -41 -55 -68 -67 -159 -72
-85 -4 -85 -4 -85 20 0 36 48 125 79 147 15 11 46 26 69 33 23 7 42 16 42 19
0 3 -18 11 -40 18 -56 16 -125 85 -141 139 -11 37 -10 45 2 53 23 16 143 4
181 -18z m-235 -44 c22 -43 16 -75 -22 -108 -20 -17 -41 -31 -47 -31 -18 0 -5
112 17 143 23 31 35 30 52 -4z m-6038 -154 c0 -29 -2 -36 -9 -25 -15 24 -23
97 -14 137 l8 38 7 -55 c4 -30 7 -73 8 -95z m6032 -68 c15 -36 1 -102 -21
-102 -23 0 -50 64 -50 118 l0 48 30 -17 c16 -10 35 -31 41 -47z m-4860 -53
c16 -15 31 -37 35 -48 3 -12 12 -35 20 -53 8 -17 19 -55 24 -84 11 -56 12
-265 1 -314 l-6 -30 -220 -6 c-121 -3 -222 -4 -224 -2 -11 8 88 333 124 402
12 26 26 57 30 71 10 35 53 90 71 90 11 0 14 -14 14 -60 0 -55 2 -60 21 -60
21 0 21 3 15 66 l-7 67 37 -6 c20 -4 50 -18 65 -33z m-972 -41 c45 -34 69 -80
80 -156 6 -39 18 -106 26 -147 20 -102 19 -162 -3 -190 -17 -21 -29 -23 -193
-30 -168 -8 -175 -7 -206 14 -57 37 -66 96 -33 233 38 156 94 247 175 285 49
23 116 19 154 -9z m1142 -203 c19 -30 56 -86 81 -125 60 -92 81 -134 74 -151
-4 -11 -29 -14 -106 -14 l-102 0 8 33 c9 41 8 278 -1 309 -9 29 1 18 46 -52z
m2832 -221 c29 -11 56 -25 62 -30 5 -5 -75 -9 -210 -9 -120 0 -216 2 -214 4 8
9 115 49 149 57 52 12 154 1 213 -22z"/>
<path d="M6401 13152 c-68 -254 -88 -479 -100 -1137 -14 -747 4 -1668 55
-2830 32 -722 36 -1136 11 -1245 -21 -91 -21 -90 -2 -90 17 0 31 47 46 160 15
109 7 573 -20 1180 -49 1087 -66 1879 -58 2635 9 794 24 993 104 1331 3 13 -1
23 -11 27 -11 5 -18 -3 -25 -31z"/>
<path d="M6692 13173 c-74 -30 -162 -523 -193 -1085 -19 -345 17 -2191 63
-3218 6 -146 12 -438 12 -650 1 -335 -1 -394 -16 -453 -23 -89 -42 -124 -91
-170 -29 -27 -38 -40 -30 -48 8 -8 18 -6 36 6 61 40 105 128 128 261 17 94 15
565 -5 1059 -53 1334 -81 2963 -56 3325 35 504 117 940 176 940 21 0 94 -49
94 -63 0 -5 7 -4 15 3 14 12 13 17 -12 42 -45 47 -87 65 -121 51z"/>
<path d="M5787 13085 c-83 -29 -106 -76 -132 -265 -54 -415 -78 -774 -100
-1540 -8 -289 -20 -676 -25 -860 -23 -797 -8 -1260 75 -2290 35 -425 35 -430
51 -430 19 0 18 39 -6 310 -23 273 -65 862 -81 1135 -15 279 -13 1049 5 1625
8 267 18 577 21 690 15 515 34 811 76 1190 22 203 42 318 59 350 14 27 68 60
98 60 15 0 22 6 22 20 0 23 -11 24 -63 5z"/>
<path d="M13738 12924 c-10 -3 -18 -12 -18 -20 0 -10 13 -14 51 -14 44 0 55
-4 79 -29 29 -32 52 -104 69 -217 34 -228 45 -880 32 -1824 -6 -399 -14 -1046
-18 -1438 l-6 -713 -26 25 c-36 34 -92 56 -145 56 l-44 0 -7 168 c-11 228 1
961 20 1272 25 419 95 1388 111 1533 6 53 5 57 -15 57 -17 0 -21 -6 -21 -30 0
-16 -11 -172 -25 -347 -27 -353 -56 -752 -81 -1123 -11 -169 -18 -446 -21
-892 l-5 -647 -27 -6 c-33 -7 -85 -58 -102 -100 -6 -16 -11 -62 -11 -101 0
-79 23 -137 67 -172 25 -20 130 -50 140 -40 3 2 -16 26 -40 53 -76 81 -95 195
-42 248 l22 22 3 -47 c2 -34 7 -48 18 -48 10 0 14 13 14 50 l0 50 38 0 c49 -1
109 -29 151 -73 l33 -35 14 -314 c23 -539 30 -638 50 -638 18 0 18 9 -1 340
-31 535 -34 873 -18 2105 15 1231 13 2251 -6 2460 -23 242 -57 367 -113 406
-29 21 -88 32 -120 23z"/>
<path d="M5540 12907 c-52 -26 -97 -131 -121 -282 -6 -38 -14 -284 -19 -545
l-8 -475 -35 -195 c-19 -107 -47 -260 -61 -340 -76 -431 -83 -809 -31 -1810 8
-151 18 -379 21 -506 l7 -231 -50 -27 c-76 -42 -96 -89 -95 -225 0 -58 7 -128
14 -156 12 -43 18 -50 39 -50 16 0 23 5 20 15 -2 8 -10 40 -18 70 -19 70 -14
222 9 265 9 17 29 38 46 47 l29 17 7 -76 c3 -42 6 -145 6 -229 l0 -153 -61
-32 c-45 -24 -65 -43 -80 -71 -11 -21 -24 -38 -29 -38 -6 0 -16 -15 -24 -32
l-13 -33 -6 45 c-22 159 -51 1442 -43 1880 12 668 29 858 141 1591 43 284 48
385 35 669 -16 338 -3 406 105 548 50 65 60 92 35 92 -13 0 -93 -107 -120
-159 -56 -111 -54 -95 -55 -536 -1 -398 -2 -415 -28 -580 -121 -743 -136 -932
-144 -1720 -5 -556 2 -937 29 -1600 l11 -290 -35 -55 c-19 -30 -47 -78 -61
-106 -14 -27 -44 -78 -67 -112 -35 -53 -45 -62 -71 -62 -16 0 -43 -7 -59 -15
-35 -18 -104 -100 -96 -114 5 -7 259 -9 286 -2 3 1 -13 17 -34 36 -30 25 -37
36 -29 47 5 7 13 26 17 43 4 16 19 48 33 70 14 22 47 78 74 125 l49 85 0 -61
c0 -66 4 -76 27 -67 12 5 13 21 8 92 -5 75 -4 90 13 114 l19 28 6 -50 c10 -81
66 -293 88 -327 11 -18 38 -41 62 -52 54 -25 142 -38 152 -22 10 16 -13 30
-50 30 -48 1 -112 35 -130 70 -15 30 -47 139 -66 225 -12 57 -10 174 4 215 11
30 75 89 100 90 4 0 7 -40 7 -90 0 -72 3 -90 15 -90 11 0 15 20 17 98 l3 97
32 3 c48 5 69 -12 102 -81 30 -59 46 -127 71 -284 12 -71 13 -73 41 -73 32 0
39 22 16 49 -8 9 -19 41 -25 71 -6 30 -17 89 -25 131 -18 88 -48 157 -88 200
-27 29 -33 31 -79 27 l-50 -5 0 33 c0 26 3 31 18 27 10 -2 25 3 33 13 12 15
11 19 -9 32 -37 24 -28 51 26 74 56 25 56 24 48 37 -4 6 -26 3 -61 -9 l-55
-19 0 133 c0 150 -2 146 75 146 74 0 97 -50 111 -238 6 -76 4 -95 -10 -116 -9
-14 -16 -30 -16 -36 0 -21 38 -9 55 17 15 23 17 42 12 142 -7 143 -20 192 -63
238 -33 35 -35 35 -98 31 l-64 -4 -6 111 c-52 1061 -67 1546 -55 1825 11 284
27 420 85 739 76 414 75 404 84 921 5 263 14 501 20 534 23 127 69 216 111
216 28 0 49 11 49 26 0 18 -46 18 -80 1z"/>
<path d="M13347 12873 c-39 -10 -8 -28 49 -29 94 -1 100 -2 133 -36 63 -64 86
-169 101 -452 17 -317 -4 -764 -85 -1821 -57 -746 -63 -837 -75 -1215 -10
-303 -3 -689 18 -948 l8 -94 -26 -13 c-45 -23 -89 -76 -106 -127 -12 -38 -15
-79 -12 -181 3 -123 5 -135 31 -179 32 -55 88 -92 163 -108 49 -11 51 -13 74
-66 29 -70 113 -164 131 -147 10 10 4 21 -29 57 -39 42 -82 113 -82 136 0 5
15 10 33 10 48 0 135 26 171 51 40 27 71 72 84 122 12 43 9 45 -21 16 -12 -12
-51 -35 -85 -52 -52 -24 -77 -30 -140 -31 l-76 -1 -13 55 c-21 93 -56 360 -49
368 4 4 49 7 99 7 109 -1 172 -20 247 -77 l50 -38 -6 28 c-19 78 -62 128 -139
164 -42 19 -67 22 -156 22 l-107 0 -6 46 c-17 138 -28 529 -23 845 7 384 18
589 77 1350 71 920 90 1261 90 1602 0 460 -43 669 -150 723 -38 19 -124 26
-173 13z m177 -4841 c9 -70 23 -157 30 -192 8 -36 12 -67 10 -69 -10 -11 -76
32 -93 60 -24 39 -34 122 -26 203 7 60 34 126 53 126 4 0 16 -58 26 -128z"/>
<path d="M14388 12354 c-5 -4 -8 -14 -8 -22 0 -11 8 -13 33 -9 54 8 110 -23
143 -79 88 -150 193 -504 248 -831 42 -250 49 -372 43 -745 -6 -367 -21 -574
-82 -1122 -92 -810 -105 -965 -105 -1219 0 -230 24 -372 92 -552 34 -90 43
-104 58 -89 6 6 -1 37 -21 89 -84 215 -108 414 -91 731 14 242 24 347 92 954
27 245 56 524 64 620 68 796 37 1265 -120 1795 -74 251 -132 380 -198 444 -29
28 -45 35 -88 39 -29 2 -56 0 -60 -4z"/>
<path d="M14345 12150 c-3 -5 13 -36 38 -67 100 -132 140 -234 167 -425 21
-147 30 -489 20 -808 -16 -496 -41 -845 -100 -1427 -61 -589 -69 -740 -50
-966 13 -151 17 -167 36 -167 13 0 14 11 7 83 -4 45 -8 199 -7 342 1 233 6
306 47 706 78 753 115 1406 104 1869 -11 455 -51 621 -198 818 -40 52 -52 61
-64 42z"/>
<path d="M7011 12058 c-27 -133 -32 -199 -38 -433 -3 -137 0 -611 7 -1052 11
-658 16 -803 27 -803 17 0 17 318 3 1137 -11 608 -4 940 25 1088 19 99 19 115
1 115 -10 0 -18 -19 -25 -52z"/>
<path d="M14062 12064 c2 -10 26 -24 65 -35 76 -24 125 -75 145 -152 20 -77
14 -328 -16 -737 -56 -767 -63 -1057 -45 -1800 20 -799 18 -1320 -4 -1477 -20
-146 -20 -133 -3 -133 20 0 23 14 42 170 21 167 22 538 4 1240 -8 295 -10 679
-7 950 6 436 13 583 57 1186 44 604 22 717 -155 783 -67 25 -88 26 -83 5z"/>
<path d="M14893 11399 c-10 -10 -1 -25 41 -73 116 -133 165 -221 198 -354 18
-74 22 -115 21 -272 0 -251 -23 -444 -127 -1110 -60 -381 -69 -465 -70 -655
-1 -216 8 -264 66 -330 33 -37 43 -43 55 -34 12 10 8 18 -22 47 -54 53 -69
117 -68 292 0 163 16 309 74 680 117 754 123 807 123 1100 0 229 0 237 -27
325 -43 137 -78 194 -223 363 -23 26 -32 31 -41 21z"/>
<path d="M4920 11232 c-93 -92 -102 -218 -120 -1557 -8 -576 -8 -920 -1 -1155
6 -184 14 -429 17 -545 9 -283 -11 -400 -85 -508 -25 -37 -28 -47 -17 -56 11
-10 21 0 50 46 20 31 46 86 58 122 22 63 23 79 21 336 -12 1604 -1 2837 27
3065 23 186 59 249 148 258 35 3 52 9 52 18 0 10 -15 14 -56 14 -52 0 -59 -3
-94 -38z"/>
<path d="M15341 10731 c-10 -7 -4 -20 29 -62 93 -117 122 -220 122 -429 0
-185 -15 -327 -102 -986 -39 -292 -85 -727 -106 -994 -22 -272 -25 -775 -6
-875 23 -120 85 -205 150 -205 36 0 25 26 -17 42 -48 19 -76 69 -96 167 -52
261 -4 1008 130 2016 98 739 106 942 44 1123 -32 94 -123 219 -148 203z"/>
<path d="M4694 10631 c-49 -22 -100 -79 -114 -128 -25 -88 -31 -266 -21 -553
6 -157 16 -402 21 -545 5 -143 14 -525 20 -850 6 -324 15 -673 20 -775 6 -102
10 -193 10 -202 0 -11 8 -18 20 -18 17 0 19 5 15 43 -11 107 -16 270 -30 961
-8 408 -22 901 -30 1096 -32 763 -20 879 95 932 46 21 61 40 42 52 -4 2 -26
-3 -48 -13z"/>
<path d="M4431 10431 c-14 -4 -33 -23 -45 -46 -21 -39 -21 -54 -24 -650 -3
-611 3 -830 35 -1232 15 -199 18 -213 36 -213 17 0 19 5 13 53 -18 154 -37
460 -47 762 -13 392 -7 1192 10 1244 12 40 26 51 64 51 30 0 38 24 11 34 -18
7 -20 7 -53 -3z"/>
<path d="M4265 10354 c-84 -43 -91 -81 -76 -399 6 -132 18 -478 26 -770 25
-910 25 -905 48 -905 18 0 19 5 13 93 -3 50 -13 335 -21 632 -8 297 -20 671
-26 830 -6 160 -10 325 -8 369 5 81 12 94 73 131 9 6 13 15 8 22 -6 10 -15 9
-37 -3z"/>
<path d="M15682 10362 c-10 -7 -7 -20 13 -58 67 -130 56 -286 -79 -1056 -114
-649 -127 -852 -63 -992 33 -71 75 -120 92 -106 11 9 6 22 -25 63 -49 64 -70
149 -70 279 0 148 28 343 144 1008 62 357 79 503 74 629 -4 91 -9 115 -36 174
-17 37 -32 67 -34 67 -2 0 -9 -4 -16 -8z"/>
<path d="M4080 10171 c-19 -11 -52 -35 -73 -56 -20 -20 -41 -34 -46 -31 -12 8
-102 -89 -133 -144 -54 -93 -63 -147 -62 -365 1 -110 9 -292 18 -405 27 -346
20 -430 -43 -518 -24 -33 -27 -42 -17 -52 19 -15 71 57 91 124 19 64 19 272 0
511 -19 234 -19 513 -1 581 18 67 60 144 100 183 l31 30 1 -137 c0 -85 11
-232 29 -387 26 -221 30 -283 30 -538 0 -257 2 -287 16 -287 14 0 17 23 23
168 8 190 -3 382 -40 717 -17 157 -25 267 -22 350 4 142 16 167 104 217 50 28
63 47 38 54 -5 2 -25 -5 -44 -15z"/>
<path d="M15916 10145 c-3 -9 5 -21 22 -32 78 -48 118 -104 147 -208 27 -94
30 -483 10 -1060 -11 -325 -16 -606 -12 -835 5 -386 12 -435 72 -555 44 -88
62 -112 75 -99 6 6 -6 41 -36 99 -73 144 -78 188 -78 675 0 228 7 557 14 730
20 450 19 923 -3 1019 -30 130 -69 194 -152 251 -50 35 -51 35 -59 15z"/>
<path d="M16293 9782 c-7 -5 5 -32 39 -87 62 -99 101 -183 118 -254 17 -74 8
-232 -25 -393 -47 -238 -133 -879 -142 -1064 -8 -163 22 -374 53 -374 18 0 18
18 -2 110 -26 117 -21 288 14 570 49 382 80 592 113 760 39 193 44 345 15 430
-26 79 -150 309 -166 309 -3 1 -10 -3 -17 -7z"/>
<path d="M15887 9773 c-3 -4 1 -48 9 -98 37 -243 32 -327 -41 -760 -70 -414
-78 -540 -39 -689 20 -76 64 -186 74 -186 20 0 17 22 -18 120 l-37 105 0 170
c1 161 4 187 55 480 l55 310 -2 205 c-1 206 -17 340 -40 347 -6 2 -13 0 -16
-4z"/>
<path d="M16523 9579 c-10 -10 4 -29 66 -94 140 -146 171 -250 171 -574 0
-102 -9 -314 -20 -471 -24 -349 -26 -515 -5 -595 26 -97 140 -273 164 -250 7
7 -7 35 -44 89 -110 160 -117 220 -84 681 28 390 30 731 6 848 -24 116 -69
197 -162 295 -64 66 -83 81 -92 71z"/>
<path d="M16854 9268 c-4 -7 2 -18 17 -27 251 -164 275 -250 229 -846 -28
-367 -35 -574 -21 -669 11 -74 95 -351 110 -360 4 -3 13 -1 19 3 10 6 5 27
-18 87 -65 167 -80 249 -80 438 0 94 7 257 15 361 8 105 19 267 25 362 23 354
-21 486 -203 613 -75 54 -82 56 -93 38z"/>
<path d="M5410 8376 c0 -25 12 -46 26 -46 9 0 14 11 14 30 0 23 -4 30 -20 30
-11 0 -20 -6 -20 -14z"/>
<path d="M5355 8371 c-9 -16 3 -31 26 -31 14 0 19 6 17 17 -4 20 -33 29 -43
14z"/>
<path d="M7380 8322 c0 -35 9 -45 27 -31 21 18 17 59 -7 59 -15 0 -20 -7 -20
-28z"/>
<path d="M12563 8060 c2 -207 3 -217 27 -265 49 -98 154 -144 303 -132 119 9
184 46 230 132 20 37 22 56 24 255 1 149 -1 203 -8 177 -5 -21 -26 -97 -48
-170 -21 -73 -41 -149 -44 -170 -12 -82 -78 -127 -185 -127 -111 0 -172 34
-190 106 -10 38 -59 217 -93 344 l-18 65 2 -215z"/>
<path d="M8265 7858 c-3 -12 -14 -191 -15 -260 0 -48 -22 -58 -105 -51 -53 4
-79 2 -90 -7 -27 -23 -5 -30 95 -30 129 0 140 9 140 119 0 42 3 113 7 159 5
73 4 82 -11 82 -9 0 -18 -6 -21 -12z"/>
<path d="M7623 7748 c-15 -19 -153 -306 -153 -318 0 -5 9 -10 21 -10 14 0 24
10 31 32 12 33 110 233 126 257 11 15 37 4 86 -36 19 -16 32 -21 39 -14 16 16
0 39 -50 71 -50 32 -84 38 -100 18z"/>
<path d="M7832 7678 c-11 -18 -43 -79 -72 -135 -28 -57 -65 -117 -81 -134 -35
-38 -36 -49 -6 -49 33 0 49 21 118 156 69 136 81 151 96 132 13 -16 60 -128
79 -190 15 -45 35 -65 56 -52 5 4 7 20 4 36 -8 40 -80 201 -106 238 -29 41
-63 40 -88 -2z"/>
</g>
</svg>
